{
    "asset" : {
        "generator" : "Khronos glTF Blender I/O v1.8.19",
        "version" : "2.0"
    },
    "scene" : 0,
    "scenes" : [
        {
            "name" : "Scene",
            "nodes" : [
                0
            ]
        }
    ],
    "nodes" : [
        {
            "mesh" : 0,
            "name" : "Plane"
        }
    ],
    "meshes" : [
        {
            "name" : "Plane",
            "primitives" : [
                {
                    "attributes" : {
                        "POSITION" : 0,
                        "NORMAL" : 1,
                        "TEXCOORD_0" : 2
                    },
                    "indices" : 3
                }
            ]
        }
    ],
    "accessors" : [
        {
            "bufferView" : 0,
            "componentType" : 5126,
            "count" : 1747,
            "max" : [
                5,
                30,
                15
            ],
            "min" : [
                -73,
                0,
                -57
            ],
            "type" : "VEC3"
        },
        {
            "bufferView" : 1,
            "componentType" : 5126,
            "count" : 1747,
            "type" : "VEC3"
        },
        {
            "bufferView" : 2,
            "componentType" : 5126,
            "count" : 1747,
            "type" : "VEC2"
        },
        {
            "bufferView" : 3,
            "componentType" : 5123,
            "count" : 3639,
            "type" : "SCALAR"
        }
    ],
    "bufferViews" : [
        {
            "buffer" : 0,
            "byteLength" : 20964,
            "byteOffset" : 0
        },
        {
            "buffer" : 0,
            "byteLength" : 20964,
            "byteOffset" : 20964
        },
        {
            "buffer" : 0,
            "byteLength" : 13976,
            "byteOffset" : 41928
        },
        {
            "buffer" : 0,
            "byteLength" : 7278,
            "byteOffset" : 55904
        }
    ],
    "buffers" : [
        {
            "byteLength" : 63184,
            "uri" : "data:application/octet-stream;base64,"
        }
    ]
}
